<svg width="32" height="33" viewBox="0 0 32 33" fill="none" xmlns="http://www.w3.org/2000/svg">
<rect y="0.422241" width="32" height="32" rx="10" fill="black" fill-opacity="0.01"/>
<rect y="0.422241" width="32" height="32" rx="10" fill="#DA3743"/>
<path fill-rule="evenodd" clip-rule="evenodd" d="M24.2498 11.589C24.2748 11.6224 24.2998 11.6724 24.3081 11.714C24.3256 11.7557 24.3331 11.7974 24.3331 11.839C24.3331 11.8724 24.3256 11.914 24.3164 11.9557L24.2998 12.0057C24.2414 12.1557 24.0914 12.2557 23.9164 12.2557H21.8331V14.339C21.8331 14.5724 21.6506 14.7557 21.4164 14.7557C21.1831 14.7557 20.9998 14.5724 20.9998 14.339V12.2557H18.9164C18.6831 12.2557 18.4998 12.0724 18.4998 11.839C18.4998 11.614 18.6831 11.4224 18.9164 11.4224H20.9998V9.33903C20.9998 9.11403 21.1831 8.92236 21.4164 8.92236C21.6506 8.92236 21.8331 9.11403 21.8331 9.33903V11.4224H23.9164C23.9581 11.4224 23.9998 11.4307 24.0414 11.4474C24.0581 11.4474 24.0831 11.4557 24.0998 11.4724C24.1331 11.4807 24.1581 11.4974 24.1831 11.5224C24.2081 11.539 24.2331 11.564 24.2498 11.589ZM23.2 15.8637L22.65 17.7887C22.6 17.9637 22.4334 18.0887 22.25 18.0887H11.4917L11.6 18.7137C11.7 19.3137 12.2167 19.7554 12.8334 19.7554H22.25C22.4834 19.7554 22.6667 19.947 22.6667 20.172C22.6667 20.4054 22.4834 20.5887 22.25 20.5887H12.825C11.8084 20.5887 10.9417 19.8554 10.775 18.8479L10.5917 17.747V17.7387L9.57502 11.6387C9.47502 11.0304 8.95002 10.5887 8.34169 10.5887H8.08335C7.85002 10.5887 7.66669 10.4054 7.66669 10.172C7.66669 9.94703 7.85002 9.75536 8.08335 9.75536H8.34169C9.32502 9.75536 10.1834 10.4554 10.3834 11.422H11.4167H16.4167C16.65 11.422 16.8334 11.6137 16.8334 11.8387C16.8334 12.072 16.65 12.2554 16.4167 12.2554H11.4167H10.5167L11.35 17.2554H21.9334L22.3834 15.6804C22.3834 15.672 22.3854 15.6658 22.3875 15.6595C22.3896 15.6533 22.3917 15.647 22.3917 15.6387C22.3917 15.6352 22.3917 15.6331 22.3923 15.6313C22.3932 15.6289 22.3952 15.6268 22.4 15.6221L22.4 15.622L22.4 15.622C22.475 15.4137 22.6917 15.2887 22.9084 15.347C23.1334 15.4137 23.2584 15.6387 23.2 15.8637ZM12.6667 23.9223C12.2084 23.9223 11.8334 23.5473 11.8334 23.0889C11.8334 22.6306 12.2084 22.2556 12.6667 22.2556C13.125 22.2556 13.5 22.6306 13.5 23.0889C13.5 23.5473 13.125 23.9223 12.6667 23.9223ZM12.6667 21.4223C11.75 21.4223 11 22.1723 11 23.0889C11 24.0139 11.75 24.7556 12.6667 24.7556C13.5834 24.7556 14.3334 24.0139 14.3334 23.0889C14.3334 22.1723 13.5834 21.4223 12.6667 21.4223ZM19.3334 23.0889C19.3334 23.5473 19.7084 23.9223 20.1667 23.9223C20.625 23.9223 21 23.5473 21 23.0889C21 22.6306 20.625 22.2556 20.1667 22.2556C19.7084 22.2556 19.3334 22.6306 19.3334 23.0889ZM18.5 23.0889C18.5 22.1723 19.25 21.4223 20.1667 21.4223C21.0917 21.4223 21.8334 22.1723 21.8334 23.0889C21.8334 24.0139 21.0917 24.7556 20.1667 24.7556C19.25 24.7556 18.5 24.0139 18.5 23.0889Z" fill="white"/>
</svg>
