<svg width="20" height="21" viewBox="0 0 20 21" fill="none" xmlns="http://www.w3.org/2000/svg">
<path d="M15.1978 12.227C16.9272 12.227 18.333 13.6148 18.333 15.3218C18.333 17.028 16.9272 18.4166 15.1978 18.4166C13.4684 18.4166 12.0626 17.028 12.0626 15.3218C12.0626 13.6148 13.4684 12.227 15.1978 12.227ZM15.1978 13.6786C14.2792 13.6786 13.5331 14.4151 13.5331 15.3218C13.5331 16.2276 14.2792 16.9651 15.1978 16.9651C16.1164 16.9651 16.8625 16.2276 16.8625 15.3218C16.8625 14.4151 16.1164 13.6786 15.1978 13.6786ZM8.43096 14.5958C8.83684 14.5958 9.16625 14.9209 9.16625 15.3216C9.16625 15.7222 8.83684 16.0474 8.43096 16.0474H2.40264C1.99676 16.0474 1.66736 15.7222 1.66736 15.3216C1.66736 14.9209 1.99676 14.5958 2.40264 14.5958H8.43096ZM4.80191 2.58331C6.53129 2.58331 7.93715 3.97201 7.93715 5.67812C7.93715 7.38423 6.53129 8.77292 4.80191 8.77292C3.07351 8.77292 1.66667 7.38423 1.66667 5.67812C1.66667 3.97201 3.07351 2.58331 4.80191 2.58331ZM4.80191 4.03491C3.88428 4.03491 3.13723 4.77232 3.13723 5.67812C3.13723 6.58391 3.88428 7.32132 4.80191 7.32132C5.72052 7.32132 6.46659 6.58391 6.46659 5.67812C6.46659 4.77232 5.72052 4.03491 4.80191 4.03491ZM17.5981 4.95251C18.0039 4.95251 18.3333 5.27767 18.3333 5.67831C18.3333 6.07895 18.0039 6.40411 17.5981 6.40411H11.5688C11.1629 6.40411 10.8335 6.07895 10.8335 5.67831C10.8335 5.27767 11.1629 4.95251 11.5688 4.95251H17.5981Z" fill="black"/>
</svg>
