<svg width="21" height="19" viewBox="0 0 21 19" fill="none" xmlns="http://www.w3.org/2000/svg">
<path d="M20.1477 9.34863L11.5681 0.844881L10.993 0.274589C10.862 0.145506 10.6848 0.0730591 10.5001 0.0730591C10.3154 0.0730591 10.1382 0.145506 10.0071 0.274589L0.852462 9.34863C0.718198 9.48126 0.612086 9.63921 0.540391 9.81318C0.468696 9.98714 0.43287 10.1736 0.435029 10.3615C0.44391 11.1366 1.09448 11.7553 1.87606 11.7553H2.81973V18.9269H18.1804V11.7553H19.1441C19.5237 11.7553 19.8812 11.6078 20.1499 11.3414C20.2822 11.2106 20.387 11.0551 20.4583 10.8839C20.5295 10.7127 20.5659 10.5291 20.5651 10.3439C20.5651 9.96957 20.4163 9.61506 20.1477 9.34863ZM11.7435 17.3415H9.25665V12.8497H11.7435V17.3415ZM16.5817 10.1699V17.3415H13.1645V12.3212C13.1645 11.8346 12.7671 11.4404 12.2764 11.4404H8.72375C8.23304 11.4404 7.83559 11.8346 7.83559 12.3212V17.3415H4.41841V10.1699H2.28684L10.5023 2.02951L11.0152 2.53814L18.7155 10.1699H16.5817Z" fill="black"/>
</svg>
