<svg width="19" height="15" viewBox="0 0 19 15" fill="none" xmlns="http://www.w3.org/2000/svg">
<path d="M14.0725 0.392813C13.9849 0.271268 13.8691 0.172187 13.7347 0.10385C13.6003 0.0355127 13.4513 -9.58878e-05 13.3002 1.93925e-07H0.950098C0.775643 0.000155699 0.6046 0.0477135 0.455724 0.137458C0.306848 0.227204 0.185889 0.35567 0.106109 0.508772C0.0263288 0.661874 -0.00919062 0.833698 0.00344535 1.0054C0.0160813 1.17711 0.0763848 1.34207 0.177743 1.48219L4.53257 7.5L0.176793 13.5178C0.0753881 13.658 0.0150767 13.823 0.00247843 13.9948C-0.0101198 14.1666 0.0254821 14.3385 0.105376 14.4916C0.185271 14.6448 0.30637 14.7732 0.455382 14.8629C0.604395 14.9526 0.775562 15 0.950098 15H13.3002C13.4513 15.0001 13.6003 14.9645 13.7347 14.8962C13.8691 14.8278 13.9849 14.7287 14.0725 14.6072L18.8226 8.04469C18.9379 7.88589 19 7.6954 19 7.5C19 7.3046 18.9379 7.11411 18.8226 6.95531L14.0725 0.392813ZM12.8109 13.125H2.79596L6.47248 8.04469C6.58787 7.88589 6.64993 7.6954 6.64993 7.5C6.64993 7.3046 6.58787 7.11411 6.47248 6.95531L2.79596 1.875H12.8109L16.8826 7.5L12.8109 13.125Z" fill="black"/>
</svg>
