<svg width="270" height="60" viewBox="0 0 270 60" fill="none" xmlns="http://www.w3.org/2000/svg">
<g clip-path="url(#clip0_2_2044)">
<path d="M75.6206 38.2775C75.0376 37.5675 74.6862 36.6972 74.6135 35.783C74.5408 34.8687 74.7501 33.9542 75.2136 33.1616C75.8546 32.1131 76.5261 31.09 77.2485 30.082C79.1461 27.3873 82.5546 26.82 84.5285 28.6029C86.5024 30.3859 86.6601 33.4352 85.1491 35.598C84.5658 36.4321 84.0079 37.2847 83.4754 38.156C82.5037 39.7566 80.5756 40.1061 79.1512 40.0453C78.8111 40.0434 78.4786 40.1446 78.1977 40.3355C77.9169 40.5264 77.7012 40.798 77.5792 41.1141C77.4317 41.4737 77.2892 41.8384 77.1519 42.2031L92.2001 42.1575C92.2001 41.96 92.2001 41.7574 92.2001 41.5547C91.9691 31.6009 87.8075 22.1387 80.6173 15.2192C73.427 8.29959 63.7876 4.48018 53.7883 4.5888C43.789 4.69742 34.2355 8.72532 27.1986 15.7994C20.1618 22.8736 16.2085 32.4239 16.1956 42.3804L44.3946 42.2993C44.5269 41.8485 44.6693 41.4129 44.8118 40.9722C45.9773 37.4315 47.4075 33.9825 49.0902 30.6543C49.5989 29.6413 49.716 28.4814 49.3395 27.7621C48.6171 26.3843 48.2101 23.8923 49.8482 21.2229C51.9637 17.753 54.3449 14.4508 56.9705 11.3456C57.1562 11.1211 57.396 10.9468 57.6674 10.8391C57.7702 10.7906 57.8852 10.7739 57.9977 10.7911C58.1101 10.8082 58.2148 10.8585 58.2983 10.9354C58.5475 11.2089 58.3898 11.8015 57.993 12.2726C56.0064 14.6168 54.1631 17.0779 52.4733 19.6425C52.3127 19.875 52.2179 20.1461 52.1986 20.4276C52.1875 20.5222 52.2003 20.6181 52.2358 20.7066C52.2713 20.795 52.3285 20.8733 52.4021 20.9342C52.7175 21.1823 53.3025 20.8734 53.6586 20.3263C55.3179 17.81 57.1289 15.3962 59.0817 13.0982C59.2585 12.8823 59.4905 12.7178 59.7532 12.6221C59.8437 12.5824 59.9428 12.5657 60.0414 12.5737C60.14 12.5817 60.235 12.614 60.3179 12.6677C60.6384 12.9007 60.5112 13.544 60.0992 14.0302C58.1846 16.2859 56.4076 18.654 54.7778 21.1216C54.6237 21.3486 54.534 21.6128 54.5184 21.8864C54.5118 21.9841 54.5304 22.0818 54.5722 22.1704C54.614 22.2591 54.6778 22.3356 54.7575 22.3929C54.846 22.4426 54.9459 22.4688 55.0475 22.4688C55.1491 22.4688 55.249 22.4426 55.3374 22.3929C55.5758 22.2792 55.7794 22.1044 55.9276 21.8864C57.5251 19.4579 59.2699 17.1286 61.1522 14.9116C61.5592 14.4051 62.1697 14.2278 62.4495 14.5114C62.5087 14.5803 62.5514 14.6618 62.5743 14.7495C62.5972 14.8373 62.5998 14.9291 62.5818 15.0179C62.5377 15.2806 62.4215 15.5261 62.246 15.7271C60.4001 17.8999 58.6876 20.1817 57.118 22.5601C56.7772 23.0666 56.7619 23.7048 57.118 23.8872C57.203 23.9307 57.2972 23.9534 57.3927 23.9534C57.4883 23.9534 57.5825 23.9307 57.6674 23.8872C57.9023 23.7763 58.1001 23.6005 58.2372 23.3807C59.7766 21.0444 61.4568 18.8031 63.2686 16.6692C63.6298 16.2387 64.169 16.0361 64.4692 16.2488C64.5549 16.3158 64.62 16.4055 64.6569 16.5076C64.6938 16.6098 64.701 16.7202 64.6778 16.8262C64.637 17.081 64.5261 17.3195 64.3573 17.5151C62.0464 20.2367 59.951 23.1326 58.0897 26.1767C57.5593 27.0865 56.8296 27.8656 55.955 28.4558C55.0803 29.046 54.0833 29.4322 53.038 29.5856C52.2444 29.6818 51.4049 30.4365 50.9623 31.4749C49.5595 34.7991 48.4066 38.2225 47.5131 41.7168C47.4674 41.8992 47.4216 42.0714 47.3809 42.2537L60.7503 42.2132C60.9113 41.6749 60.9581 41.1091 60.8877 40.5518C60.5893 39.5658 60.3111 38.5527 60.0534 37.5127C59.964 36.2482 60.2133 34.9827 60.7758 33.8454C61.8905 31.5172 63.1443 29.2574 64.5302 27.0783C65.3993 25.6894 66.5756 24.5165 67.9693 23.6491C69.2563 22.8691 70.5485 22.1295 71.861 21.4761C72.0866 21.3333 72.3505 21.2621 72.6176 21.272C72.8847 21.282 73.1425 21.3726 73.3567 21.5318C73.9112 22.0384 73.8655 22.9856 73.255 23.7454C68.8881 29.268 65.5271 35.51 63.3245 42.1879L74.7659 42.1524C75.0813 41.494 75.4069 40.8456 75.7427 40.2023C75.8994 39.9006 75.9709 39.5621 75.9494 39.2231C75.9279 38.8841 75.8142 38.5572 75.6206 38.2775Z" fill="url(#paint0_linear_2_2044)"/>
<path d="M11.1642 44.9893C11.1683 45.6744 11.4445 46.3302 11.9325 46.8133C12.4205 47.2963 13.0808 47.5675 13.7689 47.5675L43.0007 47.4814C43.3975 45.7355 43.8621 44.01 44.3946 42.3047L13.7537 42.3908C13.4121 42.3915 13.074 42.4593 12.7588 42.5903C12.4436 42.7214 12.1575 42.9132 11.9169 43.1546C11.6764 43.396 11.486 43.6824 11.3568 43.9972C11.2277 44.312 11.1622 44.6492 11.1642 44.9893Z" fill="url(#paint1_linear_2_2044)"/>
<path d="M46.2667 47.4716L59.0155 47.4361C59.2801 46.5041 59.5599 45.5772 59.8651 44.6654C60.1042 43.9361 60.3739 43.2117 60.6333 42.4975C60.6634 42.418 60.6888 42.3368 60.7096 42.2544L47.3401 42.2949C46.9281 44.0019 46.572 45.7342 46.2667 47.4716Z" fill="url(#paint2_linear_2_2044)"/>
<path d="M62.3477 45.3794C62.1645 46.0581 61.9915 46.7419 61.8389 47.4055L72.6037 47.3751C73.2287 45.6179 73.947 43.895 74.7556 42.2136L63.3142 42.2491C62.9429 43.2824 62.6325 44.3309 62.3477 45.3794Z" fill="url(#paint3_linear_2_2044)"/>
<path d="M97.9792 42.8972C97.7381 42.6508 97.4491 42.4559 97.1299 42.3244C96.8106 42.1929 96.4678 42.1276 96.1224 42.1323L77.1212 42.188C76.4674 43.8809 75.9103 45.6092 75.4526 47.3647L96.1376 47.3039C96.6521 47.3023 97.1545 47.1487 97.5812 46.8626C98.008 46.5765 98.3399 46.1707 98.5349 45.6967C98.7299 45.2227 98.7792 44.7017 98.6767 44.1998C98.5742 43.6978 98.3244 43.2374 97.9589 42.8769L97.9792 42.8972Z" fill="url(#paint4_linear_2_2044)"/>
<path style="mix-blend-mode:multiply" d="M85.139 35.5983C86.6652 33.4355 86.4973 30.3862 84.5183 28.6033C82.5393 26.8203 79.1359 27.3876 77.2384 30.0823C76.5261 31.0954 75.8546 32.1084 75.2034 33.162C74.74 33.9545 74.5306 34.8691 74.6033 35.7833C74.6761 36.6975 75.0274 37.5678 75.6104 38.2779C75.8101 38.5664 75.9246 38.905 75.9408 39.2551C75.957 39.6052 75.8742 39.9527 75.702 40.2584C75.3662 40.9017 75.0406 41.55 74.7252 42.2085L63.2838 42.2439C65.4911 35.5649 68.8573 29.3229 73.2295 23.8014C73.8299 23.0416 73.8858 22.0742 73.3313 21.5879C73.1171 21.4286 72.8593 21.338 72.5922 21.3281C72.325 21.3181 72.0612 21.3893 71.8356 21.5322C70.5231 22.2008 69.2309 22.9251 67.9438 23.7052C66.5501 24.5725 65.3739 25.7454 64.5048 27.1343C63.1188 29.3135 61.8651 31.5732 60.7504 33.9015C60.1782 35.0378 59.9201 36.3053 60.0025 37.5738C60.2569 38.5868 60.535 39.5999 60.8368 40.6129C60.9072 41.1702 60.8604 41.736 60.6995 42.2743L47.33 42.3149C48.2352 38.6372 49.4258 35.0351 50.8911 31.5411C51.3337 30.528 52.1731 29.748 52.9668 29.6518C54.0121 29.4983 55.0091 29.1122 55.8838 28.5219C56.7584 27.9317 57.4881 27.1527 58.0185 26.2428C59.8798 23.1988 61.9752 20.3029 64.286 17.5813C64.4549 17.3856 64.5658 17.1472 64.6065 16.8924C64.6298 16.7864 64.6226 16.676 64.5857 16.5738C64.5488 16.4717 64.4837 16.382 64.398 16.315C64.0978 16.1022 63.5586 16.315 63.1974 16.7354C61.3856 18.8693 59.7054 21.1105 58.166 23.4468C58.0289 23.6667 57.8311 23.8425 57.5962 23.9534C57.5113 23.9969 57.4171 24.0196 57.3215 24.0196C57.2259 24.0196 57.1318 23.9969 57.0468 23.9534C56.6958 23.771 56.711 23.1429 57.0468 22.6263C58.6312 20.2466 60.359 17.9648 62.2206 15.7933C62.3961 15.5922 62.5123 15.3468 62.5564 15.0841C62.5743 14.9952 62.5718 14.9034 62.5489 14.8157C62.5259 14.7279 62.4833 14.6465 62.4241 14.5776C62.1443 14.2939 61.5338 14.4966 61.1268 14.9778C59.2445 17.1948 57.4997 19.5241 55.9021 21.9526C55.754 22.1705 55.5504 22.3454 55.312 22.4591C55.2235 22.5088 55.1236 22.5349 55.022 22.5349C54.9204 22.5349 54.8206 22.5088 54.7321 22.4591C54.6523 22.4018 54.5886 22.3252 54.5468 22.2366C54.5049 22.148 54.4864 22.0503 54.493 21.9526C54.5086 21.679 54.5982 21.4147 54.7524 21.1877C56.3822 18.7202 58.1592 16.3521 60.0737 14.0964C60.4858 13.5899 60.613 12.9669 60.2925 12.7339C60.2096 12.6801 60.1145 12.6478 60.016 12.6399C59.9174 12.6319 59.8183 12.6485 59.7278 12.6883C59.4651 12.784 59.2331 12.9485 59.0563 13.1644C57.1048 15.4493 55.2938 17.8496 53.6332 20.352C53.2771 20.899 52.692 21.208 52.3766 20.9598C52.3031 20.8989 52.2459 20.8207 52.2104 20.7322C52.1748 20.6438 52.162 20.5479 52.1731 20.4533C52.1925 20.1718 52.2873 19.9007 52.4479 19.6682C54.137 17.0966 55.9803 14.6287 57.9676 12.278C58.3644 11.8069 58.5221 11.2143 58.2728 10.9408C58.1893 10.8639 58.0846 10.8136 57.9722 10.7964C57.8598 10.7793 57.7448 10.796 57.642 10.8445C57.3706 10.9522 57.1308 11.1265 56.945 11.351C54.3195 14.4562 51.9383 17.7584 49.8228 21.2283C48.1999 23.8976 48.6069 26.3897 49.3141 27.7675C49.6905 28.4868 49.5837 29.6264 49.0648 30.6597C47.3821 33.9879 45.9519 37.4369 44.7864 40.9776C44.6439 41.4183 44.5015 41.8539 44.3692 42.3047C43.4932 42.3127 42.6257 42.1329 41.8257 41.7775C41.0257 41.4221 40.3119 40.8994 39.7327 40.2449C39.1536 39.5904 38.7227 38.8195 38.4694 37.9846C38.216 37.1496 38.1461 36.2701 38.2644 35.4059C40.5384 18.9742 50.9827 6.40737 63.701 5.62732C71.7394 7.69699 78.8761 12.3302 84.0206 18.8188C89.1651 25.3075 92.0344 33.2948 92.19 41.5601C92.19 41.7627 92.19 41.9654 92.19 42.1629L77.1417 42.2085C77.2791 41.8438 77.4215 41.4791 77.569 41.1195C77.691 40.8034 77.9067 40.5318 78.1876 40.3409C78.4684 40.15 78.801 40.0488 79.141 40.0507C80.5655 40.1115 82.4936 39.762 83.4652 38.1614C83.9943 37.2868 84.5522 36.4324 85.139 35.5983Z" fill="url(#paint5_linear_2_2044)"/>
<path d="M54.8134 -0.810791C53.869 -0.810791 52.9632 -0.437231 52.2953 0.22771C51.6275 0.892652 51.2523 1.79451 51.2523 2.73488V6.28055H58.3746V2.73488C58.3746 1.79451 57.9994 0.892652 57.3315 0.22771C56.6637 -0.437231 55.7579 -0.810791 54.8134 -0.810791Z" fill="url(#paint6_linear_2_2044)"/>
<path d="M114.181 15.0618H122.002L128.635 31.2383H128.942L135.576 15.0618H143.396V41.1892H137.247V25.1403H137.03L130.753 41.0234H126.824L120.547 25.051H120.33V41.1892H114.181V15.0618ZM156.638 41.5592C154.589 41.5592 152.82 41.1552 151.331 40.3472C149.851 39.5307 148.712 38.3698 147.912 36.8644C147.121 35.3505 146.726 33.5517 146.726 31.468C146.726 29.4438 147.126 27.6747 147.925 26.1609C148.724 24.6385 149.851 23.4563 151.306 22.6143C152.76 21.7638 154.474 21.3385 156.447 21.3385C157.842 21.3385 159.118 21.5554 160.274 21.9892C161.431 22.4229 162.43 23.065 163.272 23.9155C164.114 24.766 164.769 25.8164 165.237 27.0666C165.705 28.3084 165.939 29.733 165.939 31.3404V32.8968H148.907V29.2737H160.134C160.125 28.6103 159.968 28.0192 159.662 27.5004C159.356 26.9816 158.935 26.5776 158.399 26.2884C157.872 25.9908 157.263 25.8419 156.575 25.8419C155.877 25.8419 155.252 25.9993 154.699 26.3139C154.146 26.6201 153.708 27.0411 153.385 27.5769C153.062 28.1043 152.892 28.7039 152.875 29.3758V33.0627C152.875 33.8621 153.032 34.5638 153.347 35.1677C153.662 35.763 154.108 36.2265 154.686 36.5582C155.265 36.8899 155.954 37.0558 156.753 37.0558C157.306 37.0558 157.808 36.9792 158.259 36.8261C158.709 36.673 159.096 36.4477 159.419 36.15C159.743 35.8523 159.985 35.4866 160.147 35.0528L165.875 35.2187C165.637 36.5029 165.114 37.6214 164.306 38.5739C163.506 39.518 162.456 40.2537 161.155 40.781C159.853 41.2998 158.348 41.5592 156.638 41.5592ZM174.792 41.5209C173.542 41.5209 172.432 41.3125 171.463 40.8958C170.502 40.4705 169.741 39.8327 169.179 38.9822C168.626 38.1232 168.35 37.0473 168.35 35.7545C168.35 34.6659 168.541 33.7473 168.924 32.9989C169.307 32.2504 169.834 31.6423 170.506 31.1746C171.178 30.7068 171.952 30.3538 172.828 30.1157C173.704 29.869 174.639 29.7032 175.634 29.6181C176.749 29.5161 177.646 29.4098 178.326 29.2992C179.007 29.1801 179.5 29.0143 179.806 28.8017C180.121 28.5805 180.278 28.2701 180.278 27.8704V27.8066C180.278 27.1517 180.053 26.6456 179.602 26.2884C179.151 25.9312 178.543 25.7526 177.778 25.7526C176.953 25.7526 176.289 25.9312 175.788 26.2884C175.286 26.6456 174.967 27.1389 174.831 27.7683L169.077 27.5642C169.247 26.3735 169.685 25.3104 170.391 24.3748C171.106 23.4308 172.084 22.6908 173.325 22.155C174.576 21.6107 176.077 21.3385 177.829 21.3385C179.079 21.3385 180.231 21.4874 181.286 21.785C182.341 22.0742 183.259 22.4995 184.042 23.0608C184.824 23.6136 185.428 24.294 185.853 25.102C186.287 25.91 186.504 26.8328 186.504 27.8704V41.1892H180.635V38.4591H180.482C180.134 39.1225 179.687 39.6838 179.143 40.1431C178.607 40.6024 177.973 40.9468 177.242 41.1765C176.519 41.4061 175.703 41.5209 174.792 41.5209ZM176.719 37.4385C177.391 37.4385 177.995 37.3024 178.53 37.0303C179.075 36.7581 179.509 36.3839 179.832 35.9076C180.155 35.4228 180.316 34.8615 180.316 34.2236V32.361C180.138 32.4546 179.921 32.5396 179.666 32.6162C179.419 32.6927 179.147 32.765 178.849 32.833C178.552 32.9011 178.246 32.9606 177.931 33.0116C177.616 33.0627 177.314 33.1095 177.025 33.152C176.438 33.2455 175.936 33.3901 175.52 33.5857C175.111 33.7813 174.797 34.0365 174.576 34.3512C174.363 34.6574 174.257 35.0231 174.257 35.4483C174.257 36.0947 174.486 36.588 174.946 36.9282C175.413 37.2684 176.004 37.4385 176.719 37.4385ZM196.7 15.0618V41.1892H190.462V15.0618H196.7ZM217.923 27.5769L212.195 27.73C212.135 27.3218 211.974 26.9603 211.71 26.6456C211.446 26.3225 211.102 26.0716 210.677 25.893C210.26 25.7058 209.775 25.6123 209.222 25.6123C208.499 25.6123 207.883 25.7569 207.372 26.046C206.871 26.3352 206.624 26.7264 206.632 27.2197C206.624 27.6025 206.777 27.9342 207.092 28.2148C207.415 28.4955 207.989 28.7209 208.814 28.891L212.59 29.6054C214.546 29.9796 216.001 30.6005 216.953 31.468C217.914 32.3355 218.399 33.4837 218.408 34.9125C218.399 36.2563 217.999 37.4257 217.208 38.4208C216.426 39.4159 215.354 40.1899 213.993 40.7427C212.633 41.287 211.076 41.5592 209.324 41.5592C206.526 41.5592 204.319 40.9851 202.703 39.8369C201.096 38.6802 200.177 37.1323 199.947 35.1932L206.109 35.0401C206.245 35.7545 206.598 36.2988 207.168 36.673C207.738 37.0473 208.465 37.2344 209.35 37.2344C210.149 37.2344 210.8 37.0855 211.302 36.7879C211.803 36.4902 212.059 36.0947 212.067 35.6014C212.059 35.1592 211.863 34.8062 211.48 34.5425C211.098 34.2704 210.498 34.0578 209.681 33.9047L206.262 33.254C204.298 32.8968 202.835 32.2377 201.874 31.2766C200.913 30.3071 200.437 29.0738 200.445 27.5769C200.437 26.2672 200.785 25.1488 201.491 24.2217C202.197 23.2862 203.201 22.5717 204.502 22.0785C205.803 21.5852 207.338 21.3385 209.107 21.3385C211.761 21.3385 213.853 21.8956 215.384 23.0098C216.915 24.1154 217.761 25.6378 217.923 27.5769Z" fill="#1A1A1A"/>
</g>
<defs>
<linearGradient id="paint0_linear_2_2044" x1="78.4285" y1="58.4493" x2="23.8709" y2="3.97808" gradientUnits="userSpaceOnUse">
<stop stop-color="#FFAB17"/>
<stop offset="0.28" stop-color="#FF8121"/>
<stop offset="0.6" stop-color="#FF572B"/>
<stop offset="0.85" stop-color="#FF3D31"/>
<stop offset="1" stop-color="#FF3333"/>
</linearGradient>
<linearGradient id="paint1_linear_2_2044" x1="60.4171" y1="76.4946" x2="5.85438" y2="22.0234" gradientUnits="userSpaceOnUse">
<stop stop-color="#FFAB17"/>
<stop offset="0.28" stop-color="#FF8121"/>
<stop offset="0.6" stop-color="#FF572B"/>
<stop offset="0.85" stop-color="#FF3D31"/>
<stop offset="1" stop-color="#FF3333"/>
</linearGradient>
<linearGradient id="paint2_linear_2_2044" x1="72.8643" y1="64.028" x2="18.3067" y2="9.55172" gradientUnits="userSpaceOnUse">
<stop stop-color="#FFAB17"/>
<stop offset="0.28" stop-color="#FF8121"/>
<stop offset="0.6" stop-color="#FF572B"/>
<stop offset="0.85" stop-color="#FF3D31"/>
<stop offset="1" stop-color="#FF3333"/>
</linearGradient>
<linearGradient id="paint3_linear_2_2044" x1="80.2392" y1="56.6411" x2="25.6765" y2="2.16988" gradientUnits="userSpaceOnUse">
<stop stop-color="#FFAB17"/>
<stop offset="0.28" stop-color="#FF8121"/>
<stop offset="0.6" stop-color="#FF572B"/>
<stop offset="0.85" stop-color="#FF3D31"/>
<stop offset="1" stop-color="#FF3333"/>
</linearGradient>
<linearGradient id="paint4_linear_2_2044" x1="89.2424" y1="47.6234" x2="34.6847" y2="-6.85288" gradientUnits="userSpaceOnUse">
<stop stop-color="#FFAB17"/>
<stop offset="0.28" stop-color="#FF8121"/>
<stop offset="0.6" stop-color="#FF572B"/>
<stop offset="0.85" stop-color="#FF3D31"/>
<stop offset="1" stop-color="#FF3333"/>
</linearGradient>
<linearGradient id="paint5_linear_2_2044" x1="65.1862" y1="31.1262" x2="26.4589" y2="2.85713" gradientUnits="userSpaceOnUse">
<stop stop-color="white"/>
<stop offset="0.13" stop-color="#F3BCBC"/>
<stop offset="0.27" stop-color="#E98181"/>
<stop offset="0.38" stop-color="#E15757"/>
<stop offset="0.47" stop-color="#DD3D3D"/>
<stop offset="0.52" stop-color="#DB3333"/>
</linearGradient>
<linearGradient id="paint6_linear_2_2044" x1="94.1625" y1="42.6956" x2="39.5998" y2="-11.7807" gradientUnits="userSpaceOnUse">
<stop stop-color="#FFAB17"/>
<stop offset="0.28" stop-color="#FF8121"/>
<stop offset="0.6" stop-color="#FF572B"/>
<stop offset="0.85" stop-color="#FF3D31"/>
<stop offset="1" stop-color="#FF3333"/>
</linearGradient>
<clipPath id="clip0_2_2044">
<rect width="269.189" height="60" fill="white"/>
</clipPath>
</defs>
</svg>
