<svg width="38" height="38" viewBox="0 0 38 38" fill="none" xmlns="http://www.w3.org/2000/svg">
<rect width="38" height="38" rx="8" fill="#EDEFF4"/>
<path d="M16.5913 21.4563L16.9111 21.4577C21.5555 21.4981 24.1833 22.4362 24.1833 24.9983C24.1833 27.5062 21.6648 28.4737 17.2234 28.5547L16.5913 28.5603C11.747 28.5603 9.00031 27.6394 9.00031 25.0183C9.00031 22.3938 11.7579 21.4563 16.5913 21.4563ZM16.5913 22.9563C12.574 22.9563 10.5003 23.6613 10.5003 25.0183C10.5003 26.3668 12.569 27.0603 16.5913 27.0603C20.6089 27.0603 22.6833 26.3553 22.6833 24.9983C22.6833 23.6506 20.6127 22.9563 16.5913 22.9563ZM24.587 20.7481C25.1676 20.7876 25.7448 20.8709 26.2994 20.9938C27.4875 21.2302 28.3708 21.6713 28.7755 22.5205C29.0743 23.1492 29.0743 23.8807 28.7755 24.5093C28.3731 25.3563 27.499 25.7943 26.3042 26.04C25.8985 26.1235 25.5019 25.8622 25.4185 25.4565C25.335 25.0508 25.5963 24.6542 26.002 24.5708C26.7708 24.4127 27.2826 24.1563 27.4207 23.8655C27.5259 23.6442 27.5259 23.3857 27.4211 23.1651C27.282 22.8733 26.7676 22.6163 25.991 22.4617C25.4936 22.3516 24.9908 22.2791 24.4852 22.2447C24.072 22.2166 23.7597 21.8588 23.7878 21.4455C23.8159 21.0323 24.1737 20.72 24.587 20.7481ZM16.5913 9.49982C19.4393 9.49982 21.7263 11.7864 21.7263 14.6338C21.7263 17.482 19.4395 19.7688 16.5913 19.7688C13.7432 19.7688 11.4573 17.4822 11.4573 14.6338C11.4573 11.7863 13.7434 9.49982 16.5913 9.49982ZM23.02 10.5694C25.2549 10.5694 27.067 12.3819 27.067 14.6164C27.067 16.8516 25.2552 18.6634 23.02 18.6634C22.6058 18.6634 22.27 18.3276 22.27 17.9134C22.27 17.4992 22.6058 17.1634 23.02 17.1634C24.4268 17.1634 25.567 16.0232 25.567 14.6164C25.567 13.2102 24.4264 12.0694 23.02 12.0694C22.6058 12.0694 22.27 11.7336 22.27 11.3194C22.27 10.9052 22.6058 10.5694 23.02 10.5694ZM16.5913 10.9998C14.5719 10.9998 12.9573 12.6147 12.9573 14.6338C12.9573 16.6538 14.5718 18.2688 16.5913 18.2688C18.6111 18.2688 20.2263 16.6536 20.2263 14.6338C20.2263 12.6149 18.611 10.9998 16.5913 10.9998Z" fill="#65B0F6"/>
</svg>
