<svg width="17" height="25" viewBox="0 0 17 25" fill="none" xmlns="http://www.w3.org/2000/svg">
<path d="M1.42237 0.166199C1.66325 0.166199 1.89427 0.259016 2.06461 0.424233C2.23494 0.589449 2.33063 0.813531 2.33063 1.04718V6.33309C2.33034 6.87987 2.50489 7.41329 2.83023 7.85982C3.15557 8.30635 3.61569 8.64401 4.14716 8.82627V1.04718C4.14716 0.813531 4.24286 0.589449 4.41319 0.424233C4.58352 0.259016 4.81454 0.166199 5.05543 0.166199C5.29632 0.166199 5.52734 0.259016 5.69767 0.424233C5.868 0.589449 5.9637 0.813531 5.9637 1.04718V8.82627C6.49517 8.64401 6.95529 8.30635 7.28063 7.85982C7.60597 7.41329 7.78052 6.87987 7.78023 6.33309V1.04718C7.78023 0.813531 7.87592 0.589449 8.04625 0.424233C8.21659 0.259016 8.44761 0.166199 8.68849 0.166199C8.92938 0.166199 9.1604 0.259016 9.33074 0.424233C9.50107 0.589449 9.59676 0.813531 9.59676 1.04718V6.33309C9.59697 7.34856 9.23547 8.33291 8.57342 9.11955C7.91138 9.9062 6.98946 10.4468 5.9637 10.6499V23.9528C5.9637 24.1864 5.868 24.4105 5.69767 24.5757C5.52734 24.7409 5.29632 24.8338 5.05543 24.8338C4.81454 24.8338 4.58352 24.7409 4.41319 24.5757C4.24286 24.4105 4.14716 24.1864 4.14716 23.9528V10.6499C3.1214 10.4468 2.19948 9.9062 1.53744 9.11955C0.875392 8.33291 0.513886 7.34856 0.514099 6.33309V1.04718C0.514099 0.813531 0.609791 0.589449 0.780124 0.424233C0.950457 0.259016 1.18148 0.166199 1.42237 0.166199ZM14.0999 2.77215C14.3888 2.49023 14.7139 2.27351 15.0464 2.13079V10.738H13.2298V4.57112C13.2298 3.97734 13.5459 3.30779 14.0999 2.77215ZM15.0464 12.5V23.9528C15.0464 24.1864 15.142 24.4105 15.3124 24.5757C15.4827 24.7409 15.7137 24.8338 15.9546 24.8338C16.1955 24.8338 16.4265 24.7409 16.5969 24.5757C16.7672 24.4105 16.8629 24.1864 16.8629 23.9528V1.04718C16.8629 0.813531 16.7672 0.589449 16.5969 0.424233C16.4265 0.259016 16.1955 0.166199 15.9546 0.166199C14.7503 0.166199 13.624 0.7406 12.8138 1.52468C12.0055 2.31051 11.4133 3.40293 11.4133 4.57112V11.619C11.4133 11.8526 11.509 12.0767 11.6793 12.2419C11.8497 12.4072 12.0807 12.5 12.3216 12.5H15.0464Z" fill="black"/>
</svg>
