<svg width="19" height="23" viewBox="0 0 19 23" fill="none" xmlns="http://www.w3.org/2000/svg">
<path d="M4 10.6052H10.875V12.2187H4V10.6052ZM4 6.57141H14.3125V8.18493H4V6.57141ZM4 14.639H8.29688V16.2525H4V14.639Z" fill="black"/>
<path d="M17.1875 2.42028H14.6094V1.61352C14.6094 1.18559 14.4283 0.775183 14.106 0.472589C13.7836 0.169995 13.3465 0 12.8906 0H6.01562C5.55978 0 5.12261 0.169995 4.80029 0.472589C4.47796 0.775183 4.29688 1.18559 4.29688 1.61352V2.42028H1.71875C1.26291 2.42028 0.825738 2.59028 0.50341 2.89287C0.181082 3.19546 0 3.60587 0 4.0338V20.9758C0 21.4037 0.181082 21.8141 0.50341 22.1167C0.825738 22.4193 1.26291 22.5893 1.71875 22.5893H17.1875C17.6433 22.5893 18.0805 22.4193 18.4028 22.1167C18.7252 21.8141 18.9062 21.4037 18.9062 20.9758V4.0338C18.9062 3.60587 18.7252 3.19546 18.4028 2.89287C18.0805 2.59028 17.6433 2.42028 17.1875 2.42028ZM6.01562 1.61352H12.8906V4.84056H6.01562V1.61352ZM17.1875 20.9758H1.71875V4.0338H4.29688V6.45408H14.6094V4.0338H17.1875V20.9758Z" fill="black"/>
</svg>
