<svg width="20" height="19" viewBox="0 0 20 19" fill="none" xmlns="http://www.w3.org/2000/svg">
<path d="M19.7359 7.08494L18.1915 8.27252C18.2646 8.67546 18.3023 9.08687 18.3023 9.49828C18.3023 9.90969 18.2646 10.3211 18.1915 10.724L19.7359 11.9116C19.8524 12.0013 19.9358 12.1208 19.9749 12.2541C20.0141 12.3875 20.0072 12.5284 19.9552 12.6581L19.934 12.7132C19.5088 13.782 18.8721 14.7728 18.0547 15.6377L18.0123 15.6822C17.9131 15.7871 17.7809 15.8624 17.6332 15.8984C17.4854 15.9344 17.3291 15.9292 17.1846 15.8837L15.2676 15.2708C14.5602 15.7925 13.7703 16.2039 12.9168 16.4923L12.5466 18.2949C12.5186 18.4305 12.4455 18.5553 12.3368 18.6526C12.2282 18.75 12.0891 18.8153 11.9382 18.8399L11.8746 18.8505C10.6461 19.0498 9.35393 19.0498 8.12544 18.8505L8.06178 18.8399C7.91086 18.8153 7.77184 18.75 7.66318 18.6526C7.55452 18.5553 7.48136 18.4305 7.45343 18.2949L7.08088 16.4838C6.23412 16.1953 5.44557 15.7841 4.74653 15.2665L2.81538 15.8837C2.67099 15.9296 2.51448 15.9349 2.36665 15.8989C2.21882 15.8629 2.08666 15.7873 1.98774 15.6822L1.9453 15.6377C1.12886 14.7722 0.492285 13.7816 0.0660269 12.7132L0.0448055 12.6581C-0.0613015 12.393 0.0259421 12.0961 0.264093 11.9116L1.8274 10.7113C1.75431 10.3126 1.71894 9.90545 1.71894 9.5004C1.71894 9.09323 1.75431 8.68606 1.8274 8.28949L0.264093 7.08918C0.147601 6.99949 0.0642265 6.88003 0.0250554 6.74669C-0.0141157 6.61335 -0.00722707 6.47244 0.0448055 6.3427L0.0660269 6.28757C0.492813 5.21874 1.12474 4.23262 1.9453 3.36314L1.98774 3.31861C2.0869 3.21375 2.21907 3.13836 2.36681 3.1024C2.51455 3.06644 2.67095 3.07158 2.81538 3.11714L4.74653 3.73426C5.44919 3.2147 6.23438 2.80328 7.08088 2.51699L7.45343 0.705927C7.48136 0.570293 7.55452 0.445513 7.66318 0.348164C7.77184 0.250814 7.91086 0.185505 8.06178 0.160912L8.12544 0.150309C9.36521 -0.0501041 10.6348 -0.0501041 11.8746 0.150309L11.9382 0.160912C12.0891 0.185505 12.2282 0.250814 12.3368 0.348164C12.4455 0.445513 12.5186 0.570293 12.5466 0.705927L12.9168 2.50851C13.77 2.79616 14.5644 3.20892 15.2676 3.73002L17.1846 3.11714C17.329 3.07121 17.4855 3.06589 17.6334 3.10188C17.7812 3.13786 17.9133 3.21345 18.0123 3.31861L18.0547 3.36314C18.8753 4.23474 19.5072 5.21874 19.934 6.28757L19.9552 6.3427C20.0613 6.60355 19.9741 6.90044 19.7359 7.08494ZM16.5173 10.4738C16.5763 10.1536 16.6069 9.82487 16.6069 9.49616C16.6069 9.16745 16.5763 8.83875 16.5173 8.51853L16.3617 7.66813L18.1231 6.31301C17.8561 5.75975 17.519 5.23602 17.1186 4.75219L14.9304 5.4499L14.19 4.90276C13.6265 4.48711 12.9993 4.16052 12.3202 3.93149L11.4218 3.62823L10.9998 1.57117C10.3338 1.5033 9.66147 1.5033 8.99552 1.57117L8.57345 3.63247L7.68215 3.93997C7.01014 4.169 6.38529 4.49559 5.82646 4.90912L5.08607 5.45838L2.88376 4.75431C2.48291 5.23995 2.14808 5.76376 1.87928 6.31513L3.65952 7.68297L3.50625 8.53125C3.44966 8.84723 3.41901 9.17382 3.41901 9.49616C3.41901 9.82062 3.4473 10.1451 3.50625 10.4611L3.65952 11.3093L1.87928 12.6772C2.14572 13.2307 2.48291 13.7524 2.88376 14.238L5.08607 13.5339L5.82646 14.0832C6.38529 14.4967 7.01014 14.8233 7.68215 15.0523L8.57581 15.3556L8.99788 17.4169C9.66046 17.4848 10.3372 17.4848 11.0021 17.4169L11.4242 15.3598L12.3226 15.0566C12.9993 14.8276 13.6289 14.501 14.1924 14.0853L14.9328 13.5382L17.121 14.2359C17.5218 13.7502 17.8566 13.2264 18.1254 12.6751L16.3641 11.3199L16.5173 10.4738ZM10.0024 13.4406C7.71045 13.4406 5.8524 11.7695 5.8524 9.70823C5.8524 7.64692 7.71045 5.97583 10.0024 5.97583C12.2943 5.97583 14.1523 7.64692 14.1523 9.70823C14.1523 11.7695 12.2943 13.4406 10.0024 13.4406ZM11.8698 8.02865C11.6249 7.80772 11.3338 7.63253 11.0133 7.51316C10.6928 7.39378 10.3492 7.33258 10.0024 7.33306C9.29734 7.33306 8.63476 7.58118 8.13488 8.02865C7.88923 8.24894 7.69445 8.51074 7.56172 8.79899C7.42899 9.08723 7.36093 9.39624 7.36147 9.70823C7.36147 10.3423 7.63735 10.9382 8.13488 11.3878C8.63476 11.8374 9.29734 12.0834 10.0024 12.0834C10.7074 12.0834 11.37 11.8374 11.8698 11.3878C12.1155 11.1675 12.3103 10.9057 12.443 10.6175C12.5757 10.3292 12.6438 10.0202 12.6432 9.70823C12.6432 9.07414 12.3674 8.47823 11.8698 8.02865Z" fill="black"/>
</svg>
